<?xml version="1.0" encoding="UTF-8" standalone="no"?>
<!-- Created with Keyshape -->
<svg xmlns="http://www.w3.org/2000/svg" shape-rendering="geometricPrecision" text-rendering="geometricPrecision" viewBox="0 0 250 250" style="white-space: pre;">
    <g transform="translate(0,11) scale(0.487465,0.487465)">
        <path d="M404.073,282.448C392.824,269.571,384.967,254.436,384.19,234.469L384.19,117.136C383.218,62.947,338.501,19.807,284.312,20.779C282.046,20.82,279.202,20.5659,276.944,20.7629C208.101,20.7629,166.931,51.621,149.907,114.341C148.361,120.025,151.715,125.887,157.4,127.434C157.582,127.484,157.766,127.528,157.95,127.568C179.597,132.338,201.48,135.969,223.507,138.448C228.378,138.763,232.841,135.732,234.344,131.088C240.616,111.717,245.373,106.469,266.856,106.469C292.55,106.233,298.405,119.089,298.728,149.626C180.904,156.133,128.189,189.071,128.189,255.802C128.189,303.866,179.794,341.135,224.189,341.135C254.796,343.808,285.188,334.034,308.498,314.02C320.089,324.898,333.413,333.766,347.922,340.26C349.27,340.838,350.722,341.135,352.189,341.135C355.02,341.14,357.737,340.02,359.741,338.02L402.408,295.353C405.828,291.928,406.511,286.629,404.073,282.448ZM295.678,279.461C285.553,290.777,271.351,297.613,256.19,298.469C246.13,298.61,213.12,295.29,213.523,245.392C213.417,235.251,217.491,225.513,224.787,218.469C248.998,199.855,279.015,190.409,309.523,191.802C315.235,191.796,319.938,196.292,320.19,201.999C323.256,230.116,314.361,258.227,295.678,279.461L295.678,279.461Z" fill="#37474F" transform="translate(-0.000727099,-20.7629)"/>
        <path d="M504.233,362.832C501.225,362.064,430.398,343.845,397.972,376.272C393.879,380.509,393.996,387.262,398.233,391.355C402.367,395.348,408.921,395.348,413.054,391.355C430.121,374.288,469.778,375.66,490.387,381.584C491.318,405.406,482.696,442.306,465.704,448.528C460.172,450.554,457.331,456.681,459.357,462.213C461.383,467.745,467.51,470.586,473.042,468.56C473.135,468.526,473.228,468.49,473.32,468.454C509.203,454.715,511.997,381.691,512.189,373.329C512.272,368.414,508.987,364.08,504.233,362.832Z" fill="#FFC107" transform="translate(-0.000727099,-20.7629)"/>
        <path d="M469.523,415.803C469.523,404.021,459.972,394.47,448.19,394.47C443.844,394.485,439.613,395.866,436.094,398.417C293.433,451.325,167.402,441.644,15.913,363.75C10.784,360.853,4.277,362.662,1.38,367.792C-1.038,372.073,-0.216,377.453,3.369,380.817C78.185,454.524,161.086,491.43,251.241,491.43C321.306,489.627,389.903,470.959,451.22,437.009C461.757,435.496,469.567,426.448,469.523,415.803Z" fill="#FFC107" transform="translate(-0.000727099,-20.7629)"/>
    </g>
</svg>
