<?xml version="1.0" encoding="UTF-8" standalone="no"?>
<!-- Created with Keyshape -->
<svg xmlns="http://www.w3.org/2000/svg" shape-rendering="geometricPrecision" text-rendering="geometricPrecision" viewBox="0 0 250 250" style="white-space: pre;">
    <path d="M152.15,0.0520167L119.731,0C82.5321,-0.155769,58.8027,23.9544,59.7709,61.5253L59.7709,89.8926L27.1746,89.8926C24.3579,89.8926,22.077,92.1762,22.077,94.9929L22.077,136.094C22.077,138.911,24.3605,141.191,27.1746,141.191L59.7709,141.191L59.7709,244.902C59.7709,247.719,62.0518,250,64.8685,250L107.397,250C110.214,250,112.495,247.716,112.495,244.902L112.495,141.191L150.608,141.191C153.424,141.191,155.705,138.911,155.705,136.094L155.721,94.9929C155.721,93.6404,155.183,92.3452,154.228,91.3881C153.273,90.431,151.973,89.8926,150.621,89.8926L112.495,89.8926L112.495,65.8453C112.538,53.7328,115.31,47.6285,130.306,48.4197L152.145,48.4119C154.959,48.4119,157.24,46.1284,157.24,43.3143L157.24,5.14965C157.24,2.33815,154.961,0.0572184,152.15,0.0520167Z" fill="#3b5998" transform="translate(35.3415,0)"/>
</svg>
