<?xml version="1.0" encoding="UTF-8" standalone="no"?>
<!-- Created with Keyshape -->
<svg xmlns="http://www.w3.org/2000/svg" shape-rendering="geometricPrecision" text-rendering="geometricPrecision" viewBox="0 0 250 250" style="white-space: pre;">
    <defs>
        <radialGradient id="Gradient-0" cx="56.3501" cy="19.2179" r="711.335" fx="56.3501" fy="19.2179" gradientUnits="userSpaceOnUse" gradientTransform="matrix(0.9986 -0.052336 0.0444856 0.8488 -36.9742 443.801)">
            <stop offset="0" stop-color="#fed576"/>
            <stop offset="0.2634" stop-color="#f47133"/>
            <stop offset="0.6091" stop-color="#bc3081"/>
            <stop offset="1" stop-color="#4c63d2"/>
        </radialGradient>
        <radialGradient id="Gradient-1" cx="154.073" cy="134.55" r="365.28" fx="154.073" fy="134.55" gradientUnits="userSpaceOnUse" gradientTransform="matrix(0.9986 -0.052336 0.0444856 0.8488 -24.3617 253.295)">
            <stop offset="0" stop-color="#fed576"/>
            <stop offset="0.2634" stop-color="#f47133"/>
            <stop offset="0.6091" stop-color="#bc3081"/>
            <stop offset="1" stop-color="#4c63d2"/>
        </radialGradient>
    </defs>
    <path class="st0" d="M96.1,23.2C79.9,29.5,66.2,37.9,52.5,51.6C37.7682,65.3611,30.4,79,24.1,95.1C18,110.7,13.9,128.6,12.7,154.8C11.5,181,11.2,189.4,11.2,256.2C11.2,323,11.5,331.4,12.7,357.6C13.9,383.8,18.1,401.7,24.1,417.3C30.4,433.5,38.8,447.2,52.5,460.9C66.2,474.6,79.9,483,96.1,489.3C111.7,495.4,129.6,499.5,155.8,500.7C182,501.9,190.4,502.2,257.2,502.2C324,502.2,332.4,501.9,358.6,500.7C384.8,499.5,402.7,495.3,418.3,489.3C434.5,483,448.2,474.6,461.9,460.9C475.6,447.2,484,433.5,490.3,417.3C496.4,401.7,500.5,383.8,501.7,357.6C502.9,331.4,503.2,323,503.2,256.2C503.2,189.4,502.9,181,501.7,154.8C500.5,128.6,496.3,110.7,490.3,95.1C484,79,476.636,65.3611,462,51.6C448.3,37.9,434.6,29.5,418.4,23.2C402.8,17.1,384.9,13,358.7,11.8C332.5,10.6,324.1,10.3,257.3,10.3C190.5,10.3,182.1,10.6,155.9,11.8C129.6,12.9,111.7,17.1,96.1,23.2ZM356.6,56C380.6,57.1,393.6,61.1,402.3,64.5C413.8,69,422,74.3,430.6,82.9C441.211,91.9084,444.5,99.7,449,111.2C452.4,119.9,456.4,132.9,457.5,156.9C458.7,182.8,458.9,190.6,458.9,256.3C458.9,322,458.6,329.8,457.5,355.7C456.4,379.7,452.4,392.7,449,401.4C444.5,412.9,439.2,421.1,430.6,429.7C422.515,438.99,413.8,443.6,402.3,448.1C393.6,451.5,380.6,455.5,356.6,456.6C330.7,457.8,322.9,458,257.2,458C191.5,458,183.7,457.7,157.8,456.6C133.8,455.5,120.8,451.5,112.1,448.1C100.6,443.6,92.8726,439.973,83.8,429.7C74.1765,421.292,69.9,412.9,65.4,401.4C62,392.7,58,379.7,56.9,355.7C55.7,329.8,55.5,322,55.5,256.3C55.5,190.6,55.8,182.8,56.9,156.9C58,132.9,62,119.9,65.4,111.2C69.9,99.7,75.2,91.5,83.8,82.9C92.8726,74.2102,100.6,69,112.1,64.5C120.8,61.1,133.8,57.1,157.8,56C183.7,54.8,191.5,54.6,257.2,54.6C322.9,54.6,330.7,54.8,356.6,56Z" fill="url(#Gradient-0)" transform="translate(-5.69101,-5.23782) scale(0.508126,0.508526)"/>
    <path class="st1" d="M130.9,256.3C130.9,326.1,187.5,382.6,257.2,382.6C326.9,382.6,383.5,326,383.5,256.3C383.5,186.6,327,130,257.2,130C187.4,130,130.9,186.5,130.9,256.3ZM339.2,256.3C339.2,301.6,302.5,338.3,257.2,338.3C211.9,338.3,175.2,301.6,175.2,256.3C175.2,211,211.9,174.3,257.2,174.3C302.5,174.3,339.2,211,339.2,256.3Z" fill="url(#Gradient-1)" transform="translate(-5.69101,-4.23782) scale(0.508126,0.508526)"/>
    <ellipse class="st2" rx="29.5" ry="29.5" fill="#654C9F" transform="translate(-6.69101,-5.23782) scale(0.508126,0.508526) translate(388.6,125)"/>
</svg>
