<?xml version="1.0" encoding="UTF-8" standalone="no"?>
<!-- Created with Keyshape -->
<svg xmlns="http://www.w3.org/2000/svg" shape-rendering="geometricPrecision" text-rendering="geometricPrecision" viewBox="0 0 250 250" style="white-space: pre;">
    <g fill="#25f4ee" transform="translate(14.8442,0.453213) scale(0.110156,0.110156)">
        <path d="M779.38,890.55L779.38,802.43C771.736,801.22,764.071,800.146,756.388,799.209C748.706,798.272,741.008,797.472,733.297,796.81C725.586,796.148,717.864,795.623,710.134,795.237C702.404,794.85,694.669,794.601,686.93,794.49C387.13,793.85,121.71,988.13,31.68,1274.09C-58.35,1560.05,47.92,1871.34,294,2042.56C203.762,1945.98,143.405,1825.35,120.214,1695.23C97.0235,1565.11,111.991,1431.06,163.309,1309.25C214.627,1187.45,300.103,1083.1,409.419,1008.81C518.735,934.51,647.218,893.443,779.36,890.56Z"/>
        <path d="M796,1888.72C963.62,1888.49,1101.4,1756.44,1108.74,1588.98L1108.74,94.62L1381.74,94.62C1380.35,86.8187,1379.14,78.9862,1378.11,71.1288C1377.08,63.2713,1376.24,55.3911,1375.57,47.4944C1374.91,39.5977,1374.43,31.6867,1374.14,23.7678C1373.84,15.8488,1373.73,7.92412,1373.8,0C1249.33,1.68479,1124.86,1.7139,1000.39,0L1000.39,1492.92C994.18,1661.23,856.07,1794.55,687.65,1794.82C675.122,1794.71,662.612,1793.87,650.185,1792.28C637.757,1790.7,625.434,1788.38,613.28,1785.35C601.126,1782.31,589.162,1778.55,577.452,1774.1C565.741,1769.65,554.304,1764.51,543.2,1758.71C557.606,1778.67,574.313,1796.86,592.976,1812.91C611.638,1828.96,632.126,1842.76,654.016,1854.02C675.906,1865.28,699.046,1873.92,722.957,1879.76C746.869,1885.6,771.385,1888.61,796,1888.72ZM1891.66,601.64L1891.66,518.58C1866.71,518.59,1841.79,516.768,1817.11,513.13C1792.43,509.492,1768.05,504.047,1744.16,496.839C1720.28,489.631,1696.95,480.68,1674.38,470.057C1651.8,459.435,1630.04,447.169,1609.26,433.36C1627.45,454.506,1647.32,474.147,1668.67,492.092C1690.02,510.038,1712.79,526.228,1736.75,540.506C1760.71,554.784,1785.79,567.103,1811.73,577.342C1837.68,587.581,1864.41,595.707,1891.66,601.64Z"/>
    </g>
    <path d="M1609.26,433.36C1588.86,410.132,1570.6,385.111,1554.69,358.602C1538.79,332.093,1525.31,304.204,1514.41,275.273C1503.52,246.342,1495.25,216.487,1489.72,186.072C1484.19,155.657,1481.41,124.804,1481.42,93.89L1381.74,93.89C1388.16,128.337,1398.07,162.042,1411.3,194.486C1424.54,226.93,1441.04,257.944,1460.55,287.051C1480.05,316.159,1502.47,343.208,1527.45,367.782C1552.43,392.357,1579.84,414.329,1609.26,433.36ZM686.93,1167.9C617.02,1168.26,549.235,1191.97,494.353,1235.28C439.47,1278.58,400.639,1338.99,384.034,1406.9C367.43,1474.81,374.003,1546.33,402.711,1610.07C431.418,1673.82,480.612,1726.14,542.47,1758.71C508.649,1712.01,488.396,1656.88,483.948,1599.39C479.499,1541.9,483.55,1490.64,509.784,1439.29C538.483,1375.69,584.944,1330.91,632.604,1308.44C681.794,1278.36,738.342,1262.47,796,1262.51C803.824,1262.61,811.642,1262.99,819.439,1263.65C827.235,1264.31,835.006,1265.25,842.737,1266.46C850.467,1267.67,858.152,1269.16,865.776,1270.92C873.4,1272.67,880.96,1274.7,888.44,1277C884.048,1150.35,883.753,1023.7,888.44,897.05C880.792,895.903,873.124,894.892,865.44,894.017C857.757,893.143,850.058,892.404,842.348,891.802C834.638,891.199,826.918,890.734,819.191,890.405C811.465,890.077,803.733,889.885,796,889.83L779.38,889.83L779.38,1178.73C771.861,1176.71,764.27,1174.97,756.624,1173.51C748.978,1172.04,741.282,1170.85,733.549,1169.95C725.817,1169.04,718.055,1168.42,710.277,1168.08C702.499,1167.73,694.712,1167.68,686.93,1167.9Z" fill="#fe2c55" transform="translate(14.8442,0.453213) scale(0.110156,0.110156)"/>
    <path d="M1891.66,601.64L1891.66,890.55C1845.51,890.46,1799.45,886.766,1753.88,879.502C1708.3,872.238,1663.37,861.425,1619.48,847.164C1575.6,832.902,1532.89,815.234,1491.76,794.321C1450.62,773.408,1411.18,749.315,1373.8,722.26L1373.8,1481.36C1370.78,1861.83,1060.43,2170.82,686.93,2166.79C652.022,2166.85,617.161,2164.23,582.656,2158.93C548.152,2153.64,514.107,2145.7,480.822,2135.17C447.538,2124.65,415.114,2111.58,383.838,2096.07C352.562,2080.57,322.527,2062.68,294,2042.56C387.746,2143.39,509.684,2213.66,643.931,2244.2C778.178,2274.74,918.512,2264.15,1046.65,2213.8C1174.79,2163.45,1284.8,2075.68,1362.35,1961.92C1438.14,1854.17,1471.99,1745.68,1481.42,1576L1481.42,819.05C1518.93,845.927,1558.48,869.839,1599.7,890.567C1640.93,911.296,1683.71,928.778,1727.66,942.855C1771.6,956.932,1816.58,967.562,1862.18,974.646C1907.77,981.731,1953.86,985.25,2000,985.17L2000,613.17C1990.9,613.143,1981.81,612.881,1972.73,612.386C1963.65,611.89,1954.58,611.161,1945.53,610.198C1936.49,609.236,1927.47,608.04,1918.49,606.613C1909.5,605.186,1900.56,603.528,1891.66,601.64Z" fill="#fe2c55" transform="translate(14.8442,0.453213) scale(0.110156,0.110156)"/>
    <path d="M1373.8,1481.36L1373.8,722.26C1411.3,749.161,1450.84,773.091,1492.06,793.833C1533.28,814.575,1576.07,832.064,1620.01,846.143C1663.96,860.221,1708.94,870.844,1754.54,877.916C1800.15,884.988,1846.23,888.486,1892.38,888.38L1892.38,599.48C1865.13,593.725,1838.39,585.782,1812.42,575.728C1786.45,565.673,1761.33,553.54,1737.31,539.446C1713.29,525.352,1690.45,509.343,1669,491.576C1647.55,473.809,1627.58,454.34,1609.26,433.36C1579.84,414.329,1552.43,392.357,1527.45,367.782C1502.47,343.208,1480.05,316.159,1460.55,287.051C1441.04,257.944,1424.54,226.93,1411.3,194.486C1398.07,162.042,1388.16,128.337,1381.74,93.89L1108.74,93.89L1108.74,1589C1106.08,1654.08,1083.22,1716.71,1043.32,1768.2C1003.43,1819.69,948.487,1857.47,886.133,1876.29C823.778,1895.12,757.109,1894.05,695.389,1873.24C633.67,1852.43,579.965,1812.91,541.74,1760.17C479.871,1727.6,430.667,1675.28,401.953,1611.53C373.238,1547.78,366.66,1476.26,383.266,1408.35C399.872,1340.43,438.708,1280.01,493.599,1236.71C548.489,1193.4,616.283,1169.69,686.2,1169.34C694.026,1169.41,701.847,1169.77,709.647,1170.41C717.447,1171.05,725.221,1171.97,732.954,1173.18C740.686,1174.39,748.372,1175.88,755.996,1177.65C763.619,1179.42,771.176,1181.47,778.65,1183.79L778.65,894.88C645.798,897.133,516.471,937.992,406.438,1012.47C296.406,1086.96,210.421,1191.84,158.969,1314.35C107.517,1436.85,92.8203,1571.68,116.671,1702.4C140.521,1833.11,201.888,1954.06,293.29,2050.5C322.099,2069.96,352.359,2087.17,383.803,2102C415.247,2116.83,447.782,2129.22,481.121,2139.07C514.461,2148.92,548.508,2156.2,582.961,2160.84C617.414,2165.48,652.172,2167.47,686.93,2166.79C1065.71,2166.79,1373,1860.14,1373.8,1481.36Z" transform="translate(14.8442,0.453213) scale(0.110156,0.110156)"/>
</svg>
