<?xml version="1.0" encoding="UTF-8" standalone="no"?>
<!-- Created with Keyshape -->
<svg xmlns="http://www.w3.org/2000/svg" shape-rendering="geometricPrecision" text-rendering="geometricPrecision" viewBox="0 0 250 250" style="white-space: pre;">
    <path d="M256,24.8728C246.802,28.9522,236.916,31.7092,226.541,32.9491C237.132,26.6011,245.264,16.5495,249.093,4.57305C239.184,10.4502,228.206,14.7188,216.523,17.0196C207.167,7.0512,193.837,0.822,179.085,0.822C150.759,0.822,127.793,23.7865,127.793,52.1114C127.793,56.1313,128.247,60.046,129.122,63.7998C86.4939,61.6609,48.7009,41.2413,23.4037,10.2106C18.9888,17.7859,16.4594,26.5965,16.4594,35.9961C16.4594,53.7903,25.5151,69.4895,39.2775,78.6869C31.2097,78.6521,23.2805,76.3307,16.0452,72.2721C16.0415,72.4861,16.0415,72.701,16.0415,72.9168C16.0415,97.7673,33.7214,118.498,57.1852,123.21C52.8809,124.382,48.3498,125.009,43.6715,125.009C40.3667,125.009,37.1533,124.687,34.0223,124.089C39.5208,144.145,57.7253,158.743,81.9346,159.709C64.1816,173.412,42.0429,181.606,18.2353,181.665C14.0956,181.665,10.0126,181.422,6,180.948C28.6983,195.501,55.6589,203.992,84.6239,203.992C178.962,204.973,230.55,126.85,230.555,58.0589C230.555,55.835,230.505,53.623,230.406,51.4237C240.427,44.1923,249.123,35.1585,256,24.8728" fill="#55acee" transform="translate(-6,24.155)"/>
</svg>
